<svg width="72" height="72" viewBox="0 0 72 72" fill="none" xmlns="http://www.w3.org/2000/svg">
<path d="M36 42C42.6274 42 48 36.6274 48 30C48 23.3726 42.6274 18 36 18C29.3726 18 24 23.3726 24 30C24 36.6274 29.3726 42 36 42Z" fill="white"/>
<path d="M47.9999 45H23.9999C19.5359 45 15.6839 47.466 13.6169 51.087C18.4739 58.269 26.6939 63 35.9999 63C45.3059 63 53.5259 58.269 58.3829 51.087C56.3129 47.466 52.4639 45 47.9999 45Z" fill="white"/>
<path d="M36 0C16.119 0 0 16.119 0 36C0 55.881 16.119 72 36 72C55.881 72 72 55.881 72 36C72 16.119 55.881 0 36 0ZM36 66C19.458 66 6 52.542 6 36C6 19.458 19.458 6 36 6C52.542 6 66 19.458 66 36C66 52.542 52.542 66 36 66Z" fill="white"/>
</svg>
