<svg width="32" height="32" viewBox="0 0 32 32" fill="none" xmlns="http://www.w3.org/2000/svg">
<path d="M25.3333 3.99999H22.6667C22.6667 3.64637 22.5262 3.30723 22.2762 3.05718C22.0261 2.80713 21.687 2.66666 21.3333 2.66666H10.6667C10.3131 2.66666 9.97392 2.80713 9.72387 3.05718C9.47382 3.30723 9.33334 3.64637 9.33334 3.99999H6.66668C6.31305 3.99999 5.97392 4.14047 5.72387 4.39051C5.47382 4.64056 5.33334 4.9797 5.33334 5.33332V28C5.33334 28.3536 5.47382 28.6928 5.72387 28.9428C5.97392 29.1928 6.31305 29.3333 6.66668 29.3333H25.3333C25.687 29.3333 26.0261 29.1928 26.2762 28.9428C26.5262 28.6928 26.6667 28.3536 26.6667 28V5.33332C26.6667 4.9797 26.5262 4.64056 26.2762 4.39051C26.0261 4.14047 25.687 3.99999 25.3333 3.99999V3.99999ZM24 26.6667H8.00001V6.66666H9.33334C9.33334 7.02028 9.47382 7.35942 9.72387 7.60947C9.97392 7.85951 10.3131 7.99999 10.6667 7.99999H21.3333C21.687 7.99999 22.0261 7.85951 22.2762 7.60947C22.5262 7.35942 22.6667 7.02028 22.6667 6.66666H24V26.6667Z" fill="white"/>
<path d="M19.0534 13.72L14.6667 18.12L12.9467 16.3867C12.6916 16.1682 12.3635 16.0541 12.028 16.067C11.6924 16.08 11.3741 16.2191 11.1366 16.4566C10.8992 16.694 10.76 17.0124 10.7471 17.3479C10.7341 17.6835 10.8483 18.0116 11.0667 18.2667L13.7334 20.9333C13.9832 21.1817 14.3211 21.321 14.6734 21.321C15.0256 21.321 15.3636 21.1817 15.6134 20.9333L20.9467 15.6C21.1652 15.3449 21.2793 15.0168 21.2663 14.6813C21.2534 14.3457 21.1143 14.0274 20.8768 13.7899C20.6393 13.5524 20.321 13.4133 19.9855 13.4004C19.6499 13.3874 19.3218 13.5016 19.0667 13.72H19.0534Z" fill="white"/>
</svg>
