<svg width="40" height="40" viewBox="0 0 40 40" fill="none" xmlns="http://www.w3.org/2000/svg">
<path d="M17.1994 5.59998C10.8075 5.59998 5.59998 10.8074 5.59998 17.1994C5.59998 23.5913 10.8075 28.7988 17.1994 28.7988C19.9639 28.7988 22.5031 27.8216 24.499 26.199L32.3486 34.0486C32.8172 34.5171 33.58 34.5172 34.0485 34.0486C34.5171 33.58 34.5171 32.8297 34.0485 32.3612L26.1989 24.5115C27.8249 22.5146 28.7988 19.9669 28.7988 17.1994C28.7988 10.8074 23.5913 5.59998 17.1994 5.59998ZM17.1994 7.99985C22.2943 7.99985 26.3989 12.1044 26.3989 17.1994C26.3989 22.2943 22.2943 26.399 17.1994 26.399C12.1045 26.399 7.99986 22.2943 7.99986 17.1994C7.99986 12.1044 12.1045 7.99985 17.1994 7.99985V7.99985Z" fill="black"/>
</svg>
