<svg width="32" height="32" viewBox="0 0 32 32" fill="none" xmlns="http://www.w3.org/2000/svg">
<path d="M19.4376 8.7294C19.4376 9.03209 19.3479 9.32798 19.1797 9.57966C19.0115 9.83134 18.7725 10.0275 18.4929 10.1433C18.2132 10.2592 17.9055 10.2895 17.6086 10.2304C17.3117 10.1714 17.039 10.0256 16.825 9.81158C16.611 9.59755 16.4652 9.32485 16.4062 9.02798C16.3471 8.7311 16.3774 8.42339 16.4933 8.14374C16.6091 7.86409 16.8052 7.62507 17.0569 7.4569C17.3086 7.28873 17.6045 7.19897 17.9072 7.19897C18.1082 7.19897 18.3072 7.23856 18.4929 7.31547C18.6785 7.39238 18.8472 7.50511 18.9894 7.64722C19.1315 7.78934 19.2442 7.95805 19.3211 8.14373C19.398 8.32941 19.4376 8.52842 19.4376 8.7294ZM15.9789 21.1082L18.0912 13.2248C18.482 11.7664 16.2424 11.1642 14.7942 11.8642C13.8896 12.3024 13.119 12.975 12.5623 13.8119C13.4725 13.4123 15.5045 12.5082 14.7656 15.2657L12.6533 23.1489C12.2624 24.6074 14.502 25.2095 15.9503 24.5095C16.8548 24.0713 17.6255 23.3989 18.1821 22.562C17.272 22.9616 15.24 23.8657 15.9789 21.1082ZM30.4 16C30.4 18.8481 29.5554 21.6322 27.9731 24.0002C26.3908 26.3683 24.1419 28.214 21.5106 29.3039C18.8794 30.3938 15.984 30.6789 13.1907 30.1233C10.3974 29.5677 7.83152 28.1962 5.81764 26.1823C3.80377 24.1685 2.4323 21.6026 1.87667 18.8093C1.32105 16.016 1.60621 13.1206 2.69612 10.4894C3.78602 7.85811 5.6317 5.60914 7.99977 4.02684C10.3678 2.44455 13.1519 1.60001 16 1.60001C19.8178 1.60433 23.478 3.12286 26.1775 5.82245C28.8771 8.52203 30.3957 12.1822 30.4 16V16ZM28.8 16C28.8 13.4684 28.0493 10.9937 26.6428 8.88871C25.2363 6.78376 23.2372 5.14315 20.8983 4.17435C18.5594 3.20555 15.9858 2.95206 13.5028 3.44595C11.0199 3.93985 8.73913 5.15893 6.94901 6.94904C5.1589 8.73915 3.93982 11.0199 3.44593 13.5029C2.95204 15.9858 3.20552 18.5595 4.17432 20.8984C5.14313 23.2372 6.78373 25.2363 8.88868 26.6428C10.9936 28.0493 13.4684 28.8 16 28.8C19.3936 28.7962 22.6471 27.4464 25.0467 25.0467C27.4464 22.6471 28.7962 19.3936 28.8 16V16Z" fill="white"/>
</svg>
